<svg width="135" height="40" viewBox="0 0 135 40" fill="none" xmlns="http://www.w3.org/2000/svg">
<g clip-path="url(#clip0_1978_2261)">
<path d="M124.249 3.84473e-05H10.7566C10.3429 3.84473e-05 9.9342 3.84473e-05 9.5216 0.00203845C9.17621 0.00403845 8.83358 0.00984845 8.48488 0.0147384C7.72733 0.0226403 6.97157 0.0817147 6.22416 0.191448C5.4778 0.303571 4.75482 0.514954 4.07967 0.818448C3.40534 1.12451 2.7892 1.52221 2.25357 1.99711C1.71514 2.47068 1.26632 3.01805 0.924356 3.6182C0.581453 4.21715 0.343683 4.85898 0.219258 5.52152C0.0936495 6.18322 0.0260586 6.85256 0.0170916 7.52352C0.00662229 7.83012 0.00551669 8.13774 0 8.44438V31.5586C0.00551669 31.8691 0.00662229 32.1699 0.0170916 32.4805C0.0260614 33.1515 0.0936522 33.8208 0.219258 34.4824C0.343339 35.1454 0.581124 35.7876 0.924356 36.3867C1.26616 36.9849 1.71505 37.5301 2.25357 38.001C2.78717 38.4781 3.40371 38.876 4.07967 39.1797C4.75481 39.484 5.47772 39.6967 6.22416 39.8105C6.9717 39.9194 7.72738 39.9785 8.48488 39.9873C8.83358 39.9941 9.17621 39.998 9.5216 39.998C9.93419 40 10.343 40 10.7566 40H124.249C124.655 40 125.067 40 125.472 39.998C125.816 39.998 126.169 39.9941 126.512 39.9873C127.268 39.979 128.023 39.9199 128.769 39.8105C129.518 39.6959 130.243 39.4833 130.921 39.1797C131.597 38.8758 132.213 38.4779 132.746 38.001C133.283 37.5283 133.733 36.9835 134.079 36.3867C134.42 35.7871 134.655 35.145 134.777 34.4824C134.903 33.8207 134.973 33.1515 134.987 32.4805C134.991 32.1699 134.991 31.8691 134.991 31.5586C135 31.1953 135 30.834 135 30.4648V9.53617C135 9.16996 135 8.80668 134.991 8.44438C134.991 8.13774 134.991 7.83012 134.987 7.52348C134.973 6.85246 134.903 6.18327 134.777 5.52148C134.655 4.85932 134.419 4.21754 134.079 3.61816C133.383 2.41523 132.278 1.43606 130.921 0.818358C130.243 0.515606 129.518 0.304279 128.769 0.191358C128.023 0.0811412 127.269 0.0220462 126.512 0.0145984C126.169 0.00971845 125.816 0.00385845 125.472 0.00190845C125.067 -9.15527e-05 124.655 -9.15527e-05 124.249 -9.15527e-05V3.84473e-05Z" fill="#A6A6A6"/>
<path d="M9.42998 39.1281C9.08566 39.1281 8.74966 39.1242 8.40804 39.1174C7.70034 39.1092 6.9943 39.0547 6.29571 38.9542C5.6443 38.8549 5.01327 38.6702 4.42342 38.4062C3.83897 38.1444 3.30591 37.8011 2.84466 37.3894C2.37673 36.9826 1.98715 36.5108 1.69137 35.9926C1.39233 35.4711 1.18538 34.9121 1.07772 34.3351C0.961463 33.715 0.898562 33.0881 0.889561 32.4597C0.882396 32.2487 0.873016 31.5464 0.873016 31.5464V8.44098C0.873016 8.44098 0.883007 7.74942 0.889618 7.54625C0.898236 6.9188 0.960772 6.29284 1.07668 5.67379C1.18454 5.09519 1.39165 4.53457 1.69085 4.01134C1.98554 3.49355 2.37296 3.02137 2.83807 2.6131C3.30266 2.20096 3.83742 1.85587 4.42286 1.59042C5.01136 1.32725 5.6412 1.14385 6.29129 1.04636C6.99218 0.944908 7.70067 0.890056 8.41082 0.882269L9.43053 0.870056H125.57L126.602 0.882759C127.306 0.89016 128.008 0.944522 128.702 1.04538C129.359 1.14409 129.995 1.32877 130.59 1.59335C131.763 2.12831 132.718 2.97466 133.32 4.01378C133.614 4.5334 133.818 5.08945 133.924 5.66305C134.042 6.28718 134.107 6.91806 134.121 7.55065C134.124 7.83391 134.124 8.13818 134.124 8.44098C134.133 8.81606 134.133 9.17306 134.133 9.533V30.466C134.133 30.8294 134.133 31.184 134.124 31.5415C134.124 31.8667 134.124 32.1647 134.12 32.4714C134.106 33.0927 134.042 33.7123 133.927 34.3253C133.821 34.9064 133.615 35.4698 133.316 35.9956C133.018 36.5081 132.631 36.9759 132.169 37.3816C131.707 37.7955 131.173 38.1408 130.587 38.4043C129.993 38.6704 129.358 38.8557 128.702 38.9542C128.004 39.0552 127.297 39.1097 126.59 39.1174C126.259 39.1242 125.912 39.1281 125.576 39.1281L124.35 39.1301L9.42998 39.1281Z" fill="black"/>
<path d="M32.7973 20.3007C32.8081 19.4661 33.0298 18.6477 33.4418 17.9217C33.8538 17.1958 34.4428 16.5858 35.1539 16.1487C34.7021 15.5035 34.1062 14.9726 33.4134 14.598C32.7205 14.2235 31.9499 14.0156 31.1627 13.991C29.4835 13.8147 27.8555 14.9958 26.9998 14.9958C26.1275 14.9958 24.81 14.0085 23.3913 14.0377C22.4736 14.0673 21.5793 14.3342 20.7954 14.8122C20.0115 15.2903 19.3649 15.9633 18.9184 16.7655C16.9844 20.114 18.427 25.035 20.2796 27.7416C21.2065 29.067 22.2898 30.5474 23.7072 30.4949C25.0943 30.4374 25.6123 29.6104 27.2866 29.6104C28.9454 29.6104 29.4314 30.4949 30.8776 30.4615C32.366 30.4374 33.3038 29.1303 34.1981 27.7924C34.8641 26.848 35.3766 25.8043 35.7166 24.6999C34.8518 24.3342 34.1139 23.722 33.5948 22.9397C33.0757 22.1574 32.7983 21.2396 32.7973 20.3007Z" fill="white"/>
<path d="M30.0657 12.2109C30.8772 11.2367 31.277 9.98454 31.1802 8.72031C29.9404 8.85053 28.7951 9.44309 27.9726 10.3799C27.5705 10.8376 27.2625 11.37 27.0662 11.9468C26.87 12.5236 26.7893 13.1334 26.8289 13.7413C27.449 13.7477 28.0626 13.6133 28.6232 13.3482C29.1839 13.0831 29.6771 12.6943 30.0657 12.2109Z" fill="white"/>
<path d="M50.3307 27.1397H45.5973L44.4606 30.4961H42.4557L46.9391 18.0781H49.0221L53.5055 30.4961H51.4664L50.3307 27.1397ZM46.0875 25.5908H49.8395L47.9899 20.1436H47.9381L46.0875 25.5908Z" fill="white"/>
<path d="M63.1881 25.9698C63.1881 28.7832 61.6823 30.5908 59.4098 30.5908C58.8341 30.621 58.2616 30.4884 57.7578 30.2082C57.254 29.9281 56.8393 29.5117 56.5612 29.0068H56.5182V33.4912H54.6598V21.4424H56.4586V22.9483H56.4928C56.7838 22.4458 57.2055 22.0316 57.7131 21.7498C58.2207 21.4679 58.7953 21.329 59.3756 21.3477C61.6734 21.3477 63.1881 23.1641 63.1881 25.9698ZM61.278 25.9698C61.278 24.1368 60.3307 22.9317 58.8854 22.9317C57.4654 22.9317 56.5104 24.1621 56.5104 25.9698C56.5104 27.794 57.4654 29.0157 58.8854 29.0157C60.3307 29.0157 61.278 27.8194 61.278 25.9698Z" fill="white"/>
<path d="M73.153 25.9697C73.153 28.7832 71.6471 30.5908 69.3746 30.5908C68.799 30.621 68.2265 30.4883 67.7227 30.2082C67.2189 29.9281 66.8042 29.5117 66.526 29.0068H66.483V33.4912H64.6246V21.4424H66.4234V22.9483H66.4576C66.7486 22.4458 67.1703 22.0316 67.6779 21.7498C68.1856 21.4679 68.7601 21.329 69.3404 21.3477C71.6383 21.3477 73.153 23.1641 73.153 25.9697ZM71.2428 25.9697C71.2428 24.1367 70.2955 22.9317 68.8502 22.9317C67.4303 22.9317 66.4752 24.1621 66.4752 25.9697C66.4752 27.794 67.4303 29.0156 68.8502 29.0156C70.2955 29.0156 71.2428 27.8194 71.2428 25.9697H71.2428Z" fill="white"/>
<path d="M79.7389 27.0362C79.8766 28.2676 81.0729 29.0762 82.7076 29.0762C84.2741 29.0762 85.401 28.2676 85.401 27.1572C85.401 26.1933 84.7213 25.6162 83.1119 25.2207L81.5026 24.833C79.2223 24.2822 78.1637 23.2158 78.1637 21.4853C78.1637 19.3427 80.0309 17.8711 82.6823 17.8711C85.3063 17.8711 87.1051 19.3427 87.1656 21.4853H85.2896C85.1774 20.2461 84.1529 19.498 82.6559 19.498C81.1588 19.498 80.1344 20.2549 80.1344 21.3564C80.1344 22.2344 80.7887 22.751 82.3893 23.1464L83.7574 23.4824C86.3053 24.0849 87.3639 25.1084 87.3639 26.9247C87.3639 29.248 85.5133 30.7031 82.5699 30.7031C79.816 30.7031 77.9566 29.2822 77.8365 27.0361L79.7389 27.0362Z" fill="white"/>
<path d="M91.3746 19.2998V21.4424H93.0963V22.9141H91.3746V27.9053C91.3746 28.6807 91.7194 29.042 92.4762 29.042C92.6806 29.0385 92.8846 29.0241 93.0875 28.999V30.4619C92.7472 30.5255 92.4014 30.5543 92.0553 30.5479C90.2223 30.5479 89.5074 29.8594 89.5074 28.1035V22.9141H88.191V21.4424H89.5074V19.2998H91.3746Z" fill="white"/>
<path d="M94.0934 25.9698C94.0934 23.1211 95.7712 21.3311 98.3874 21.3311C101.012 21.3311 102.682 23.1211 102.682 25.9698C102.682 28.8262 101.021 30.6084 98.3874 30.6084C95.7545 30.6084 94.0934 28.8262 94.0934 25.9698ZM100.789 25.9698C100.789 24.0157 99.8932 22.8623 98.3874 22.8623C96.8815 22.8623 95.987 24.0244 95.987 25.9698C95.987 27.9317 96.8815 29.0762 98.3874 29.0762C99.8932 29.0762 100.789 27.9317 100.789 25.9698H100.789Z" fill="white"/>
<path d="M104.214 21.4424H105.987V22.9834H106.03C106.15 22.5021 106.432 22.0768 106.828 21.7789C107.225 21.481 107.712 21.3287 108.208 21.3477C108.422 21.3469 108.635 21.3702 108.844 21.417V23.1553C108.574 23.0727 108.292 23.0347 108.009 23.043C107.739 23.032 107.47 23.0796 107.22 23.1825C106.971 23.2854 106.746 23.4411 106.562 23.639C106.378 23.8369 106.239 24.0723 106.155 24.329C106.07 24.5856 106.042 24.8575 106.073 25.126V30.4961H104.214L104.214 21.4424Z" fill="white"/>
<path d="M117.413 27.8369C117.163 29.4805 115.562 30.6084 113.514 30.6084C110.88 30.6084 109.246 28.8438 109.246 26.0127C109.246 23.1729 110.889 21.3311 113.436 21.3311C115.941 21.3311 117.516 23.0518 117.516 25.7969V26.4336H111.122V26.5459C111.092 26.8791 111.134 27.2148 111.244 27.5306C111.354 27.8465 111.53 28.1353 111.761 28.3778C111.991 28.6204 112.27 28.8111 112.58 28.9374C112.89 29.0637 113.223 29.1227 113.557 29.1104C113.996 29.1515 114.437 29.0498 114.814 28.8204C115.191 28.5909 115.483 28.246 115.648 27.8369L117.413 27.8369ZM111.13 25.1348H115.657C115.674 24.8352 115.628 24.5354 115.523 24.2542C115.419 23.973 115.257 23.7164 115.049 23.5007C114.84 23.2849 114.589 23.1146 114.312 23.0003C114.034 22.8861 113.736 22.8305 113.436 22.8369C113.134 22.8351 112.834 22.8933 112.553 23.008C112.273 23.1228 112.019 23.2918 111.805 23.5055C111.59 23.7191 111.42 23.9731 111.305 24.2527C111.189 24.5324 111.13 24.8322 111.13 25.1348V25.1348Z" fill="white"/>
<path d="M45.8546 8.73104C46.2442 8.70309 46.6352 8.76195 46.9993 8.90338C47.3634 9.04481 47.6916 9.26529 47.9602 9.54892C48.2288 9.83254 48.4311 10.1722 48.5525 10.5435C48.6739 10.9148 48.7114 11.3084 48.6622 11.6959C48.6622 13.6021 47.632 14.6979 45.8546 14.6979H43.6993V8.73104H45.8546ZM44.6261 13.854H45.7511C46.0295 13.8707 46.3081 13.825 46.5666 13.7204C46.8252 13.6158 47.0571 13.4549 47.2456 13.2493C47.4341 13.0437 47.5744 12.7987 47.6563 12.5321C47.7381 12.2655 47.7595 11.984 47.7189 11.708C47.7566 11.4332 47.733 11.1534 47.6499 10.8888C47.5668 10.6241 47.4262 10.3811 47.2381 10.1772C47.05 9.97325 46.8192 9.81344 46.5621 9.7092C46.305 9.60497 46.0281 9.55888 45.7511 9.57425H44.6261V13.854Z" fill="white"/>
<path d="M49.7091 12.4444C49.6808 12.1485 49.7147 11.8499 49.8085 11.5678C49.9023 11.2858 50.0541 11.0264 50.254 10.8064C50.454 10.5864 50.6977 10.4107 50.9695 10.2904C51.2414 10.1701 51.5354 10.108 51.8326 10.108C52.1299 10.108 52.4239 10.1701 52.6958 10.2904C52.9676 10.4107 53.2113 10.5864 53.4113 10.8064C53.6112 11.0264 53.763 11.2858 53.8568 11.5678C53.9506 11.8499 53.9845 12.1485 53.9562 12.4444C53.985 12.7406 53.9516 13.0396 53.858 13.3221C53.7644 13.6046 53.6127 13.8645 53.4127 14.0849C53.2127 14.3053 52.9688 14.4814 52.6967 14.6019C52.4246 14.7225 52.1303 14.7848 51.8326 14.7848C51.535 14.7848 51.2407 14.7225 50.9686 14.6019C50.6964 14.4814 50.4525 14.3053 50.2526 14.0849C50.0526 13.8645 49.9009 13.6046 49.8073 13.3221C49.7137 13.0396 49.6803 12.7406 49.7091 12.4444ZM53.0421 12.4444C53.0421 11.4683 52.6036 10.8975 51.8341 10.8975C51.0617 10.8975 50.6271 11.4683 50.6271 12.4444C50.6271 13.4283 51.0617 13.9947 51.8341 13.9947C52.6037 13.9947 53.0421 13.4244 53.0421 12.4444H53.0421Z" fill="white"/>
<path d="M59.6017 14.6978H58.6798L57.7491 11.3814H57.6788L56.7521 14.6978H55.839L54.5978 10.1949H55.4991L56.3058 13.6309H56.3722L57.298 10.1949H58.1505L59.0763 13.6309H59.1466L59.9493 10.1949H60.838L59.6017 14.6978Z" fill="white"/>
<path d="M61.882 10.1949H62.7374V10.9102H62.8038C62.9165 10.6533 63.1065 10.4379 63.3474 10.2941C63.5882 10.1503 63.868 10.0852 64.1476 10.1079C64.3667 10.0915 64.5867 10.1245 64.7913 10.2046C64.9959 10.2847 65.1798 10.4098 65.3295 10.5707C65.4792 10.7315 65.5908 10.924 65.656 11.1338C65.7212 11.3436 65.7383 11.5654 65.7062 11.7827V14.6977H64.8175V12.0059C64.8175 11.2823 64.5031 10.9224 63.8458 10.9224C63.6971 10.9155 63.5486 10.9408 63.4105 10.9966C63.2725 11.0525 63.1481 11.1375 63.046 11.2459C62.9439 11.3543 62.8664 11.4834 62.8188 11.6246C62.7713 11.7657 62.7549 11.9154 62.7706 12.0635V14.6978H61.882L61.882 10.1949Z" fill="white"/>
<path d="M67.1222 8.43704H68.0109V14.6978H67.1222V8.43704Z" fill="white"/>
<path d="M69.2462 12.4444C69.2179 12.1484 69.2518 11.8499 69.3456 11.5678C69.4395 11.2857 69.5913 11.0263 69.7913 10.8064C69.9912 10.5864 70.2349 10.4106 70.5068 10.2903C70.7787 10.17 71.0727 10.1079 71.37 10.1079C71.6673 10.1079 71.9613 10.17 72.2331 10.2903C72.505 10.4106 72.7487 10.5864 72.9487 10.8064C73.1487 11.0263 73.3004 11.2857 73.3943 11.5678C73.4882 11.8499 73.522 12.1484 73.4938 12.4444C73.5226 12.7406 73.4891 13.0396 73.3955 13.3221C73.3018 13.6046 73.1501 13.8645 72.9501 14.0849C72.7501 14.3053 72.5062 14.4814 72.2341 14.6019C71.9619 14.7225 71.6676 14.7847 71.37 14.7847C71.0723 14.7847 70.778 14.7225 70.5059 14.6019C70.2337 14.4814 69.9898 14.3053 69.7898 14.0849C69.5898 13.8645 69.4381 13.6046 69.3445 13.3221C69.2509 13.0396 69.2174 12.7406 69.2462 12.4444ZM72.5792 12.4444C72.5792 11.4683 72.1407 10.8975 71.3712 10.8975C70.5987 10.8975 70.1642 11.4683 70.1642 12.4444C70.1642 13.4283 70.5988 13.9947 71.3712 13.9947C72.1407 13.9947 72.5792 13.4244 72.5792 12.4444H72.5792Z" fill="white"/>
<path d="M74.4293 13.4244C74.4293 12.6138 75.0328 12.1465 76.1041 12.0801L77.3239 12.0098V11.6212C77.3239 11.1456 77.0094 10.877 76.402 10.877C75.9059 10.877 75.5621 11.0591 75.4635 11.3775H74.6031C74.694 10.6041 75.4215 10.108 76.443 10.108C77.5719 10.108 78.2086 10.67 78.2086 11.6212V14.6978H77.3531V14.065H77.2828C77.1401 14.292 76.9397 14.477 76.7021 14.6013C76.4645 14.7255 76.1981 14.7844 75.9303 14.772C75.7413 14.7917 75.5502 14.7715 75.3694 14.7128C75.1887 14.6541 75.0222 14.5582 74.8808 14.4312C74.7394 14.3042 74.6262 14.149 74.5484 13.9756C74.4706 13.8022 74.4301 13.6144 74.4293 13.4244ZM77.3239 13.0396V12.6631L76.2242 12.7335C75.6041 12.775 75.3229 12.9859 75.3229 13.3829C75.3229 13.7881 75.6744 14.024 76.1579 14.024C76.2995 14.0383 76.4426 14.024 76.5786 13.9819C76.7146 13.9398 76.8408 13.8708 76.9495 13.779C77.0583 13.6871 77.1475 13.5743 77.2118 13.4473C77.2761 13.3203 77.3142 13.1816 77.3239 13.0396Z" fill="white"/>
<path d="M79.3766 12.4444C79.3766 11.0215 80.108 10.1202 81.2457 10.1202C81.5271 10.1072 81.8064 10.1746 82.051 10.3145C82.2955 10.4544 82.4951 10.661 82.6266 10.9102H82.693V8.43704H83.5817V14.6978H82.7301V13.9864H82.6598C82.5182 14.2338 82.3116 14.4379 82.0623 14.5764C81.8131 14.7148 81.5307 14.7825 81.2457 14.772C80.1002 14.772 79.3766 13.8707 79.3766 12.4444ZM80.2946 12.4444C80.2946 13.3995 80.7448 13.9742 81.4977 13.9742C82.2467 13.9742 82.7096 13.3912 82.7096 12.4483C82.7096 11.5098 82.2419 10.9185 81.4977 10.9185C80.7496 10.9185 80.2946 11.4971 80.2946 12.4444H80.2946Z" fill="white"/>
<path d="M87.2584 12.4444C87.2301 12.1485 87.264 11.8499 87.3578 11.5678C87.4516 11.2858 87.6034 11.0264 87.8034 10.8064C88.0033 10.5864 88.247 10.4107 88.5188 10.2904C88.7907 10.1701 89.0847 10.108 89.382 10.108C89.6792 10.108 89.9732 10.1701 90.2451 10.2904C90.5169 10.4107 90.7606 10.5864 90.9606 10.8064C91.1605 11.0264 91.3123 11.2858 91.4061 11.5678C91.5 11.8499 91.5338 12.1485 91.5055 12.4444C91.5343 12.7406 91.5009 13.0396 91.4073 13.3221C91.3137 13.6046 91.162 13.8645 90.962 14.0849C90.7621 14.3053 90.5182 14.4814 90.246 14.6019C89.9739 14.7225 89.6796 14.7848 89.382 14.7848C89.0843 14.7848 88.79 14.7225 88.5179 14.6019C88.2458 14.4814 88.0019 14.3053 87.8019 14.0849C87.6019 13.8645 87.4502 13.6046 87.3566 13.3221C87.263 13.0396 87.2296 12.7406 87.2584 12.4444ZM90.5914 12.4444C90.5914 11.4683 90.1529 10.8975 89.3834 10.8975C88.611 10.8975 88.1764 11.4683 88.1764 12.4444C88.1764 13.4283 88.611 13.9947 89.3834 13.9947C90.153 13.9947 90.5914 13.4244 90.5914 12.4444Z" fill="white"/>
<path d="M92.6979 10.1949H93.5533V10.9102H93.6198C93.7324 10.6533 93.9224 10.4379 94.1633 10.2941C94.4042 10.1503 94.6839 10.0852 94.9635 10.1079C95.1826 10.0915 95.4026 10.1245 95.6072 10.2046C95.8118 10.2847 95.9958 10.4098 96.1454 10.5707C96.2951 10.7315 96.4067 10.924 96.4719 11.1338C96.5371 11.3436 96.5543 11.5654 96.5221 11.7827V14.6977H95.6334V12.0059C95.6334 11.2823 95.319 10.9224 94.6618 10.9224C94.513 10.9155 94.3645 10.9408 94.2264 10.9966C94.0884 11.0525 93.964 11.1375 93.8619 11.2459C93.7598 11.3543 93.6823 11.4834 93.6348 11.6246C93.5872 11.7657 93.5708 11.9154 93.5865 12.0635V14.6978H92.6979V10.1949Z" fill="white"/>
<path d="M101.544 9.07376V10.2154H102.519V10.9639H101.544V13.2793C101.544 13.751 101.738 13.9576 102.18 13.9576C102.294 13.9572 102.407 13.9503 102.519 13.937V14.6773C102.36 14.7058 102.198 14.721 102.036 14.7227C101.047 14.7227 100.654 14.375 100.654 13.5069V10.9639H99.9391V10.2153H100.654V9.07376H101.544Z" fill="white"/>
<path d="M103.733 8.43704H104.614V10.9185H104.684C104.802 10.6592 104.998 10.4426 105.243 10.2982C105.489 10.1539 105.773 10.0888 106.057 10.1119C106.275 10.1 106.493 10.1364 106.695 10.2184C106.898 10.3005 107.079 10.4261 107.227 10.5865C107.376 10.7468 107.486 10.9379 107.552 11.146C107.618 11.3541 107.637 11.5742 107.608 11.7906V14.6978H106.718V12.0098C106.718 11.2906 106.383 10.9263 105.756 10.9263C105.603 10.9138 105.449 10.9348 105.305 10.9878C105.162 11.0409 105.031 11.1247 104.923 11.2334C104.815 11.3422 104.732 11.4732 104.68 11.6173C104.628 11.7615 104.608 11.9152 104.622 12.0679V14.6978H103.733L103.733 8.43704Z" fill="white"/>
<path d="M112.79 13.482C112.669 13.8935 112.407 14.2495 112.051 14.4876C111.694 14.7258 111.265 14.8309 110.838 14.7847C110.542 14.7925 110.247 14.7357 109.974 14.6182C109.702 14.5007 109.458 14.3252 109.26 14.1041C109.063 13.883 108.915 13.6214 108.828 13.3376C108.742 13.0538 108.718 12.7545 108.758 12.4605C108.719 12.1656 108.743 11.8657 108.83 11.581C108.916 11.2963 109.063 11.0336 109.26 10.8105C109.457 10.5874 109.699 10.4092 109.971 10.288C110.242 10.1668 110.537 10.1054 110.835 10.108C112.087 10.108 112.843 10.964 112.843 12.378V12.688H109.664V12.7378C109.65 12.9031 109.671 13.0694 109.725 13.2262C109.779 13.3829 109.865 13.5266 109.978 13.6481C110.091 13.7695 110.228 13.8661 110.38 13.9315C110.533 13.9969 110.697 14.0297 110.863 14.0278C111.075 14.0534 111.291 14.0151 111.482 13.9179C111.672 13.8207 111.83 13.6689 111.934 13.4819L112.79 13.482ZM109.664 12.0308H111.938C111.949 11.8797 111.929 11.7279 111.878 11.5852C111.827 11.4424 111.747 11.312 111.642 11.2021C111.538 11.0922 111.412 11.0054 111.272 10.9473C111.132 10.8891 110.981 10.8608 110.83 10.8643C110.676 10.8624 110.523 10.8912 110.381 10.9492C110.239 11.0071 110.109 11.093 110.001 11.2017C109.892 11.3104 109.806 11.4398 109.748 11.5822C109.69 11.7246 109.662 11.8771 109.664 12.0308H109.664Z" fill="white"/>
</g>
<defs>
<clipPath id="clip0_1978_2261">
<rect width="135" height="40" fill="white"/>
</clipPath>
</defs>
</svg>
