<svg width="135" height="40" viewBox="0 0 135 40" fill="none" xmlns="http://www.w3.org/2000/svg">
<g clip-path="url(#clip0_1978_2240)">
<path d="M130 3.05176e-05H5C2.23858 3.05176e-05 0 2.23861 0 5.00003V35C0 37.7615 2.23858 40 5 40H130C132.761 40 135 37.7615 135 35V5.00003C135 2.23861 132.761 3.05176e-05 130 3.05176e-05Z" fill="black"/>
<path d="M130 0.800044C131.114 0.801331 132.181 1.24427 132.968 2.03169C133.756 2.81911 134.199 3.8867 134.2 5.00024V35.0002C134.199 36.1138 133.756 37.1814 132.968 37.9688C132.181 38.7562 131.114 39.1991 130 39.2004H5C3.88645 39.1992 2.81888 38.7562 2.0315 37.9688C1.24412 37.1814 0.801231 36.1138 0.8 35.0002V5.00024C0.801212 3.88669 1.24409 2.81909 2.03148 2.03166C2.81886 1.24424 3.88644 0.801309 5 0.800044H130ZM130 0.000244141H5C3.67511 0.00412224 2.40559 0.532152 1.46875 1.46899C0.531908 2.40584 0.0038781 3.67535 0 5.00024L0 35.0002C0.0038781 36.3251 0.531908 37.5947 1.46875 38.5315C2.40559 39.4683 3.67511 39.9964 5 40.0002H130C131.325 39.9964 132.594 39.4683 133.531 38.5315C134.468 37.5947 134.996 36.3251 135 35.0002V5.00024C134.996 3.67535 134.468 2.40584 133.531 1.46899C132.594 0.532152 131.325 0.00412224 130 0.000244141Z" fill="#A6A6A6"/>
<path d="M47.4184 10.2433C47.4366 10.6103 47.3799 10.9771 47.2518 11.3214C47.1237 11.6658 46.9268 11.9804 46.6732 12.2462C46.389 12.541 46.0457 12.7724 45.6659 12.9254C45.2861 13.0784 44.8783 13.1494 44.4691 13.1339C44.0573 13.1376 43.649 13.059 43.268 12.9026C42.8871 12.7462 42.5412 12.5152 42.2508 12.2233C41.9604 11.9313 41.7313 11.5842 41.5769 11.2024C41.4226 10.8207 41.3461 10.4119 41.352 10.0001C41.3462 9.58837 41.4227 9.17959 41.577 8.79781C41.7314 8.41603 41.9605 8.06895 42.2509 7.77695C42.5413 7.48496 42.8871 7.25395 43.268 7.09748C43.649 6.94102 44.0573 6.86226 44.4691 6.86584C44.8925 6.86456 45.3116 6.95016 45.7006 7.11734C46.0619 7.26378 46.3834 7.49348 46.6391 7.78774L46.1117 8.31554C45.9107 8.07899 45.6581 7.89178 45.3733 7.76834C45.0885 7.64491 44.7791 7.58856 44.4691 7.60364C44.157 7.60202 43.8478 7.66341 43.56 7.78412C43.2722 7.90483 43.0118 8.08239 42.7942 8.30615C42.5767 8.52991 42.4065 8.79527 42.2939 9.08635C42.1814 9.37743 42.1287 9.68823 42.1391 10.0001C42.1317 10.4673 42.2631 10.9262 42.5168 11.3186C42.7705 11.711 43.135 12.0192 43.5641 12.2041C43.9932 12.3891 44.4676 12.4425 44.927 12.3575C45.3865 12.2725 45.8104 12.0529 46.1449 11.7267C46.4528 11.395 46.6313 10.9637 46.6478 10.5113H44.4691V9.79064H47.3764C47.4039 9.93998 47.4179 10.0915 47.4184 10.2433Z" fill="white" stroke="white" stroke-width="0.2" stroke-miterlimit="10"/>
<path d="M52.0277 7.73742H49.2953V9.63972H51.7592V10.3605H49.2953V12.2628H52.0277V13.0001H48.5248V7.00012H52.0277V7.73742Z" fill="white" stroke="white" stroke-width="0.2" stroke-miterlimit="10"/>
<path d="M55.2787 13.0001H54.5072V7.73742H52.8314V7.00012H56.9545V7.73742H55.2787V13.0001Z" fill="white" stroke="white" stroke-width="0.2" stroke-miterlimit="10"/>
<path d="M59.9379 13.0001V7.00012H60.7084V13.0001H59.9379Z" fill="white" stroke="white" stroke-width="0.2" stroke-miterlimit="10"/>
<path d="M64.1283 13.0001H63.3568V7.73742H61.6811V7.00012H65.8041V7.73742H64.1283V13.0001Z" fill="white" stroke="white" stroke-width="0.2" stroke-miterlimit="10"/>
<path d="M73.6093 12.2247C73.0253 12.807 72.2343 13.1339 71.4096 13.1339C70.5849 13.1339 69.7939 12.807 69.2099 12.2247C68.921 11.9321 68.6939 11.5844 68.542 11.2022C68.3902 10.8201 68.3168 10.4113 68.3261 10.0001C68.3168 9.58903 68.3902 9.18024 68.542 8.79807C68.6939 8.41591 68.921 8.06817 69.2099 7.77554C69.4986 7.48681 69.8413 7.25784 70.2186 7.10174C70.5958 6.94565 71.0002 6.86548 71.4085 6.86585C71.8167 6.86621 72.2209 6.94709 72.5979 7.10386C72.9749 7.26062 73.3173 7.4902 73.6054 7.77944C73.8945 8.0713 74.1221 8.41826 74.2746 8.79973C74.4271 9.1812 74.5014 9.58941 74.4931 10.0001C74.5022 10.4112 74.4286 10.8199 74.2768 11.2021C74.125 11.5842 73.898 11.932 73.6093 12.2247ZM69.7792 11.7223C70.2117 12.1541 70.7979 12.3967 71.4091 12.3967C72.0203 12.3967 72.6065 12.1541 73.039 11.7223C73.2608 11.4953 73.4343 11.2256 73.5489 10.9296C73.6635 10.6336 73.717 10.3174 73.706 10.0001C73.717 9.6829 73.6635 9.36673 73.5489 9.07072C73.4343 8.77472 73.2608 8.50503 73.039 8.27794C72.6065 7.84615 72.0203 7.60363 71.4091 7.60363C70.7979 7.60363 70.2117 7.84615 69.7792 8.27794C69.5577 8.50521 69.3845 8.77495 69.2701 9.07093C69.1556 9.36691 69.1022 9.68299 69.1132 10.0001C69.1022 10.3173 69.1556 10.6334 69.2701 10.9294C69.3845 11.2253 69.5577 11.4951 69.7792 11.7223Z" fill="white" stroke="white" stroke-width="0.2" stroke-miterlimit="10"/>
<path d="M75.5751 13.0001V7.00012H76.5136L79.4296 11.6676H79.4628L79.4296 10.5113V7.00012H80.2011V13.0001H79.3964L76.3456 8.10652H76.3124L76.3456 9.26282V13.0001H75.5751Z" fill="white" stroke="white" stroke-width="0.2" stroke-miterlimit="10"/>
<path d="M68.1358 21.7517C67.2953 21.7549 66.4746 22.0071 65.7773 22.4764C65.08 22.9456 64.5373 23.611 64.2179 24.3885C63.8984 25.1659 63.8165 26.0206 63.9825 26.8445C64.1484 27.6685 64.5547 28.4248 65.1502 29.018C65.7457 29.6113 66.5035 30.0147 67.3281 30.1775C68.1527 30.3403 69.0071 30.2551 69.7833 29.9328C70.5595 29.6104 71.2228 29.0652 71.6895 28.3661C72.1561 27.667 72.4051 26.8454 72.4051 26.0048C72.4134 25.4427 72.3085 24.8846 72.0966 24.3638C71.8848 23.8429 71.5704 23.3701 71.1721 22.9733C70.7737 22.5765 70.2997 22.2638 69.7781 22.054C69.2564 21.8441 68.698 21.7413 68.1358 21.7517ZM68.1358 28.5825C67.6182 28.6194 67.1014 28.4997 66.6528 28.2388C66.2043 27.9779 65.8446 27.588 65.6207 27.1198C65.3968 26.6517 65.3191 26.1269 65.3976 25.614C65.4761 25.101 65.7072 24.6236 66.0608 24.2438C66.4145 23.864 66.8743 23.5995 67.3804 23.4847C67.8865 23.3699 68.4154 23.4102 68.8983 23.6002C69.3812 23.7902 69.7957 24.1212 70.0878 24.5501C70.3799 24.979 70.5362 25.4859 70.5362 26.0048C70.5519 26.3327 70.5019 26.6603 70.389 26.9686C70.2762 27.2768 70.1028 27.5593 69.8792 27.7995C69.6555 28.0397 69.386 28.2327 69.0866 28.3672C68.7872 28.5017 68.4639 28.5749 68.1358 28.5825ZM58.8224 21.7517C57.9819 21.7549 57.1612 22.007 56.4638 22.4763C55.7665 22.9456 55.2239 23.6109 54.9044 24.3884C54.585 25.1658 54.503 26.0205 54.6689 26.8445C54.8349 27.6685 55.2412 28.4248 55.8367 29.018C56.4321 29.6112 57.19 30.0147 58.0146 30.1775C58.8392 30.3403 59.6936 30.2552 60.4698 29.9328C61.246 29.6104 61.9093 29.0652 62.376 28.3661C62.8426 27.667 63.0916 26.8454 63.0916 26.0048C63.0999 25.4427 62.995 24.8846 62.7831 24.3638C62.5713 23.843 62.2569 23.3701 61.8586 22.9733C61.4603 22.5765 60.9862 22.2639 60.4646 22.054C59.943 21.8441 59.3845 21.7414 58.8224 21.7517ZM58.8224 28.5825C58.3048 28.6194 57.788 28.4997 57.3394 28.2388C56.8909 27.9779 56.5312 27.588 56.3073 27.1198C56.0834 26.6517 56.0057 26.1269 56.0842 25.614C56.1627 25.101 56.3938 24.6236 56.7474 24.2438C57.1011 23.864 57.5609 23.5995 58.067 23.4847C58.573 23.3699 59.102 23.4102 59.5849 23.6002C60.0678 23.7902 60.4823 24.1212 60.7744 24.5501C61.0665 24.979 61.2228 25.4859 61.2228 26.0048C61.2385 26.3327 61.1885 26.6604 61.0757 26.9686C60.9628 27.2768 60.7895 27.5593 60.5658 27.7995C60.3421 28.0397 60.0726 28.2327 59.7732 28.3672C59.4738 28.5017 59.1505 28.5749 58.8224 28.5825ZM47.7436 23.0567V24.861H52.0613C51.999 25.7073 51.6527 26.5078 51.0785 27.1326C50.6458 27.5737 50.1255 27.9191 49.5511 28.1466C48.9767 28.3742 48.3609 28.4787 47.7436 28.4536C46.4816 28.4365 45.277 27.9232 44.3906 27.0247C43.5042 26.1263 43.0073 24.9149 43.0073 23.6527C43.0073 22.3906 43.5042 21.1792 44.3906 20.2807C45.277 19.3822 46.4816 18.8689 47.7436 18.8518C48.9558 18.836 50.1253 19.2991 50.998 20.1406L52.2707 18.8679C51.6753 18.2784 50.9681 17.8138 50.1907 17.5012C49.4134 17.1886 48.5814 17.0343 47.7436 17.0474C46.8681 17.0347 45.9988 17.1961 45.1862 17.5224C44.3737 17.8486 43.6341 18.3331 43.0104 18.9477C42.3868 19.5623 41.8916 20.2948 41.5535 21.1025C41.2155 21.9103 41.0414 22.7771 41.0414 23.6527C41.0414 24.5283 41.2155 25.3952 41.5535 26.2029C41.8916 27.0107 42.3868 27.7431 43.0104 28.3578C43.6341 28.9724 44.3737 29.4569 45.1862 29.7831C45.9988 30.1093 46.8681 30.2708 47.7436 30.258C48.5991 30.2935 49.4523 30.1467 50.2467 29.8273C51.0411 29.5078 51.7584 29.0231 52.3512 28.4053C53.4036 27.2566 53.9646 25.7416 53.914 24.1844C53.9181 23.8063 53.8857 23.4286 53.8172 23.0567H47.7436ZM93.0519 24.4582C92.7963 23.6879 92.3097 23.0149 91.6583 22.5306C91.0069 22.0464 90.2223 21.7745 89.4109 21.7517C88.8644 21.7551 88.3243 21.8693 87.8232 22.0873C87.3222 22.3054 86.8705 22.6228 86.4955 23.0203C86.1206 23.4179 85.8301 23.8873 85.6417 24.4003C85.4534 24.9133 85.371 25.4591 85.3995 26.0048C85.3872 26.564 85.4877 27.1199 85.6951 27.6394C85.9024 28.1589 86.2123 28.6312 86.6063 29.0282C87.0003 29.4252 87.4703 29.7387 87.9881 29.95C88.506 30.1613 89.0611 30.2661 89.6204 30.258C90.3211 30.2619 91.0117 30.0917 91.6303 29.7627C92.2489 29.4337 92.7761 28.9562 93.1646 28.3731L91.7147 27.4065C91.4975 27.7673 91.1902 28.0653 90.8231 28.2715C90.4559 28.4777 90.0415 28.5849 89.6204 28.5825C89.1871 28.5991 88.7588 28.4851 88.3911 28.2553C88.0234 28.0255 87.7332 27.6905 87.5582 27.2937L93.2453 24.9416L93.0519 24.4582ZM87.2522 25.876C87.2322 25.5665 87.2741 25.256 87.3755 24.9629C87.4769 24.6697 87.6357 24.3997 87.8428 24.1687C88.0498 23.9377 88.3008 23.7502 88.5811 23.6174C88.8614 23.4846 89.1654 23.409 89.4753 23.395C89.798 23.3738 90.1198 23.448 90.4006 23.6085C90.6813 23.7689 90.9087 24.0085 91.0542 24.2972L87.2522 25.876ZM82.6284 30.0002H84.4972V17.4986H82.6284V30.0002ZM79.5674 22.7022H79.503C79.2189 22.3935 78.8721 22.1491 78.486 21.9852C78.0998 21.8212 77.683 21.7417 77.2636 21.7517C76.1669 21.7984 75.1306 22.2669 74.3711 23.0594C73.6116 23.8519 73.1876 24.9072 73.1876 26.0049C73.1876 27.1026 73.6116 28.1578 74.3711 28.9503C75.1306 29.7429 76.1669 30.2114 77.2636 30.258C77.6847 30.2692 78.1031 30.1886 78.4899 30.0216C78.8766 29.8547 79.2223 29.6055 79.503 29.2914H79.5674V29.9036C79.5674 31.5308 78.6975 32.4007 77.2958 32.4007C76.8287 32.3896 76.3754 32.2396 75.9939 31.9699C75.6123 31.7002 75.3196 31.323 75.1532 30.8863L73.526 31.563C73.8327 32.3097 74.3553 32.9478 75.027 33.3956C75.6986 33.8433 76.4886 34.0803 77.2958 34.0762C79.4869 34.0762 81.3396 32.7874 81.3396 29.6458V22.0094H79.5674V22.7022ZM77.4248 28.5825C76.7789 28.5278 76.177 28.2325 75.7384 27.7551C75.2999 27.2778 75.0565 26.6531 75.0565 26.0049C75.0565 25.3566 75.2999 24.732 75.7384 24.2547C76.177 23.7773 76.7789 23.482 77.4248 23.4272C77.7462 23.4429 78.0611 23.5232 78.3508 23.6631C78.6404 23.8031 78.899 24 79.111 24.2421C79.3229 24.4841 79.484 24.7663 79.5846 25.072C79.6851 25.3776 79.7231 25.7003 79.6963 26.0209C79.7214 26.3396 79.682 26.66 79.5805 26.963C79.4789 27.2661 79.3173 27.5456 79.1052 27.7847C78.8931 28.0238 78.635 28.2178 78.3463 28.3548C78.0576 28.4919 77.7442 28.5694 77.4248 28.5825ZM101.806 17.4988H97.3346V30.0002H99.2003V25.2638H101.806C102.334 25.2928 102.862 25.2138 103.358 25.0318C103.854 24.8497 104.308 24.5684 104.692 24.2051C105.076 23.8417 105.381 23.4039 105.59 22.9184C105.799 22.4329 105.907 21.9099 105.907 21.3813C105.907 20.8528 105.799 20.3298 105.59 19.8443C105.381 19.3588 105.076 18.921 104.692 18.5576C104.308 18.1943 103.854 17.913 103.358 17.7309C102.862 17.5489 102.334 17.4699 101.806 17.4988ZM101.854 23.524H99.2003V19.2387H101.854C102.139 19.2328 102.423 19.2839 102.688 19.3889C102.953 19.4939 103.194 19.6508 103.398 19.8504C103.602 20.0499 103.764 20.2881 103.874 20.551C103.985 20.8139 104.042 21.0962 104.042 21.3814C104.042 21.6666 103.985 21.9489 103.874 22.2118C103.764 22.4747 103.602 22.7129 103.398 22.9124C103.194 23.112 102.953 23.2688 102.688 23.3739C102.423 23.4789 102.139 23.5299 101.854 23.524ZM113.386 21.7287C112.705 21.689 112.027 21.8489 111.435 22.1889C110.844 22.5289 110.365 23.0341 110.056 23.6426L111.713 24.3342C111.877 24.0322 112.126 23.7846 112.429 23.6218C112.732 23.459 113.075 23.3879 113.418 23.4174C113.891 23.3712 114.363 23.5146 114.731 23.816C115.099 24.1175 115.332 24.5525 115.38 25.0257V25.1544C114.781 24.8361 114.112 24.6704 113.434 24.6719C111.649 24.6719 109.831 25.653 109.831 27.4865C109.849 27.8729 109.943 28.2519 110.11 28.601C110.277 28.9501 110.512 29.2621 110.801 29.5186C111.091 29.7751 111.429 29.9709 111.795 30.0942C112.162 30.2176 112.55 30.2661 112.935 30.2367C113.405 30.2644 113.874 30.1656 114.292 29.9506C114.711 29.7356 115.064 29.4124 115.316 29.0144H115.38V29.9794H117.181V25.1866C117.181 22.9671 115.525 21.7287 113.386 21.7287ZM113.161 28.5801C112.549 28.5801 111.697 28.2746 111.697 27.5186C111.697 26.5537 112.758 26.1837 113.675 26.1837C114.271 26.1679 114.859 26.3123 115.38 26.6019C115.311 27.1442 115.049 27.6433 114.641 28.0069C114.233 28.3706 113.707 28.5742 113.161 28.5801ZM123.743 22.0021L121.604 27.4221H121.54L119.32 22.0021H117.31L120.639 29.5773L118.741 33.7911H120.687L125.818 22.0021H123.743ZM106.936 30.0002H108.802V17.4988H106.936V30.0002Z" fill="white"/>
<path d="M10.4353 7.53812C10.1074 7.93019 9.94182 8.43281 9.97251 8.94302V31.0591C9.94173 31.5693 10.1073 32.072 10.4353 32.464L10.5093 32.5361L22.8983 20.1472V19.8549L10.5093 7.46552L10.4353 7.53812Z" fill="url(#paint0_linear_1978_2240)"/>
<path d="M27.0277 24.2786L22.8983 20.1472V19.8549L27.0287 15.7245L27.1218 15.7776L32.0146 18.5577C33.4122 19.3517 33.4122 20.6509 32.0146 21.4454L27.1218 24.2255L27.0277 24.2786Z" fill="url(#paint1_linear_1978_2240)"/>
<path d="M27.1218 24.225L22.8983 20.0011L10.4353 32.464C10.7201 32.7152 11.0837 32.8588 11.4633 32.87C11.8428 32.8812 12.2143 32.7593 12.5134 32.5254L27.1218 24.225Z" fill="url(#paint2_linear_1978_2240)"/>
<path d="M27.1218 15.7771L12.5134 7.47672C12.2143 7.24281 11.8428 7.1209 11.4633 7.13212C11.0837 7.14333 10.7201 7.28696 10.4353 7.53812L22.8983 20.0011L27.1218 15.7771Z" fill="url(#paint3_linear_1978_2240)"/>
<path opacity="0.2" d="M27.0287 24.132L12.5134 32.3793C12.2258 32.5983 11.8748 32.7177 11.5134 32.7196C11.152 32.7216 10.7997 32.6059 10.5098 32.39L10.4353 32.4645L10.5093 32.5366L10.5098 32.5361C10.7997 32.7521 11.1519 32.8678 11.5134 32.8659C11.8749 32.864 12.2259 32.7445 12.5134 32.5254L27.1218 24.225L27.0287 24.132Z" fill="black"/>
<path opacity="0.12" d="M10.4353 32.3184C10.1074 31.9264 9.94186 31.4237 9.97251 30.9135V31.0596C9.94184 31.5698 10.1074 32.0725 10.4353 32.4645L10.5098 32.39L10.4353 32.3184Z" fill="black"/>
<path opacity="0.12" d="M32.0146 21.2988L27.0287 24.132L27.1218 24.225L32.0146 21.4449C32.3024 21.32 32.5515 21.1202 32.7358 20.8664C32.9202 20.6125 33.0331 20.3139 33.0629 20.0015C33.001 20.2844 32.8741 20.5489 32.6921 20.7741C32.5101 20.9993 32.2781 21.179 32.0146 21.2988Z" fill="black"/>
<path opacity="0.25" d="M12.5134 7.62334L32.0146 18.7033C32.2783 18.8232 32.5103 19.0029 32.6923 19.2282C32.8743 19.4535 33.0012 19.7182 33.0629 20.0011C33.0334 19.6887 32.9205 19.3899 32.7361 19.1359C32.5517 18.8819 32.3026 18.6821 32.0146 18.5572L12.5134 7.47724C11.1158 6.68314 9.9725 7.34274 9.9725 8.94354V9.08964C9.9725 7.48894 11.1158 6.82934 12.5134 7.62334Z" fill="white"/>
</g>
<defs>
<linearGradient id="paint0_linear_1978_2240" x1="21.7996" y1="8.70983" x2="5.01724" y2="25.4922" gradientUnits="userSpaceOnUse">
<stop stop-color="#00A0FF"/>
<stop offset="0.00657" stop-color="#00A1FF"/>
<stop offset="0.2601" stop-color="#00BEFF"/>
<stop offset="0.5122" stop-color="#00D2FF"/>
<stop offset="0.7604" stop-color="#00DFFF"/>
<stop offset="1" stop-color="#00E3FF"/>
</linearGradient>
<linearGradient id="paint1_linear_1978_2240" x1="33.8343" y1="20.0016" x2="9.6374" y2="20.0016" gradientUnits="userSpaceOnUse">
<stop stop-color="#FFE000"/>
<stop offset="0.4087" stop-color="#FFBD00"/>
<stop offset="0.7754" stop-color="#FFA500"/>
<stop offset="1" stop-color="#FF9C00"/>
</linearGradient>
<linearGradient id="paint2_linear_1978_2240" x1="24.8269" y1="22.2962" x2="2.06857" y2="45.0545" gradientUnits="userSpaceOnUse">
<stop stop-color="#FF3A44"/>
<stop offset="1" stop-color="#C31162"/>
</linearGradient>
<linearGradient id="paint3_linear_1978_2240" x1="7.29723" y1="0.176298" x2="17.4598" y2="10.3388" gradientUnits="userSpaceOnUse">
<stop stop-color="#32A071"/>
<stop offset="0.0685" stop-color="#2DA771"/>
<stop offset="0.4762" stop-color="#15CF74"/>
<stop offset="0.8009" stop-color="#06E775"/>
<stop offset="1" stop-color="#00F076"/>
</linearGradient>
<clipPath id="clip0_1978_2240">
<rect width="135" height="40.0002" fill="white"/>
</clipPath>
</defs>
</svg>
