<svg width="28" height="28" viewBox="0 0 28 28" fill="none" xmlns="http://www.w3.org/2000/svg">
<path d="M0.575317 28H10.0685C14.57 28 18.2192 24.3508 18.2192 19.8493H8.726C4.2245 19.8493 0.575317 23.4985 0.575317 28Z" fill="#F22BB2"/>
<path d="M1 8.15069V20.137C5.5015 20.137 9.15069 16.4878 9.15069 11.9863V0C4.64919 0 1 3.64919 1 8.15069Z" fill="#8C30F5"/>
<path d="M27.4247 0H17.9315C13.43 0 9.78082 3.64919 9.78082 8.15068H19.274C23.7755 8.15068 27.4247 4.5015 27.4247 0Z" fill="#FE9A22"/>
<path d="M27.4247 19.3699V7.38358C22.9232 7.38358 19.274 11.0328 19.274 15.5343V27.5206C23.7755 27.5206 27.4247 23.8714 27.4247 19.3699Z" fill="#2EC5CE"/>
</svg>
