<svg width="32" height="32" viewBox="0 0 32 32" fill="none" xmlns="http://www.w3.org/2000/svg">
<path d="M30.6667 7.99998V2.66665C30.6667 2.31302 30.5262 1.97388 30.2762 1.72384C30.0261 1.47379 29.687 1.33331 29.3333 1.33331H2.66668C2.31305 1.33331 1.97392 1.47379 1.72387 1.72384C1.47382 1.97388 1.33334 2.31302 1.33334 2.66665V7.99998H30.6667Z" fill="#2EC5CE"/>
<path d="M1.33334 10.6666V29.3333C1.33334 29.6869 1.47382 30.0261 1.72387 30.2761C1.97392 30.5262 2.31305 30.6666 2.66668 30.6666H9.33334V10.6666H1.33334Z" fill="#D6B1FF"/>
<path d="M12 30.6666H29.3333C29.687 30.6666 30.0261 30.5262 30.2761 30.2761C30.5262 30.0261 30.6667 29.6869 30.6667 29.3333V10.6666H12V30.6666Z" fill="#8C30F5"/>
</svg>
